<?xml version="1.0" encoding="UTF-8"?>
<svg version="1.1" xmlns="http://www.w3.org/2000/svg" width="428" height="169">
<path d="M0 0 C141.24 0 282.48 0 428 0 C428 55.77 428 111.54 428 169 C286.76 169 145.52 169 0 169 C0 113.23 0 57.46 0 0 Z " fill="#FEFEFE" transform="translate(0,0)"/>
<path d="M0 0 C5.16537085 2.49192012 8.43880763 5.888206 11 11 C11.34057617 14.3215332 11.34057617 14.3215332 11.29296875 18.05078125 C11.28872391 18.70958786 11.28447906 19.36839447 11.28010559 20.04716492 C11.26341196 22.13603885 11.22578058 24.22392139 11.1875 26.3125 C11.17244097 27.73501203 11.15875469 29.1575393 11.14648438 30.58007812 C11.11354003 34.05370351 11.06182408 37.52675487 11 41 C12.20946289 40.9685791 12.20946289 40.9685791 13.44335938 40.93652344 C17.12877727 40.85290827 20.81399494 40.80119451 24.5 40.75 C26.40265625 40.69972656 26.40265625 40.69972656 28.34375 40.6484375 C36.59952547 40.56243984 42.65083649 40.85017315 48.875 46.7890625 C52.1707441 52.16753378 52.9455988 56.74854124 52 63 C50.0053381 68.87317114 46.36498987 71.87178665 41.21582031 75.12841797 C38.22283427 76.30569432 35.69591477 76.22450832 32.484375 76.1953125 C31.23398438 76.18886719 29.98359375 76.18242188 28.6953125 76.17578125 C27.39335938 76.15902344 26.09140625 76.14226562 24.75 76.125 C23.43257813 76.11597656 22.11515625 76.10695313 20.7578125 76.09765625 C17.50502538 76.07408533 14.25260411 76.04118022 11 76 C11.0314209 77.16402344 11.0314209 77.16402344 11.06347656 78.3515625 C11.14712759 81.90090748 11.19881629 85.45004435 11.25 89 C11.28351563 90.22074219 11.31703125 91.44148438 11.3515625 92.69921875 C11.43018427 99.97173259 11.06214226 104.88126148 7 111 C1.17706553 115.63458049 -3.75340544 116.67121116 -11 116 C-16.86944408 113.96826936 -19.88222754 110.37414029 -23.12841797 105.20214844 C-24.28611005 102.2771113 -24.22495166 99.84487591 -24.1953125 96.703125 C-24.18886719 95.49785156 -24.18242188 94.29257813 -24.17578125 93.05078125 C-24.15902344 91.79652344 -24.14226562 90.54226562 -24.125 89.25 C-24.11597656 87.98027344 -24.10695312 86.71054688 -24.09765625 85.40234375 C-24.07409005 82.26803907 -24.04118832 79.13411459 -24 76 C-24.77601562 76.02618408 -25.55203125 76.05236816 -26.3515625 76.0793457 C-29.900832 76.18390727 -33.44977651 76.24851554 -37 76.3125 C-38.22074219 76.35439453 -39.44148438 76.39628906 -40.69921875 76.43945312 C-48.24382334 76.54140724 -53.18095288 75.9560839 -59 71 C-59.99 70.195625 -60.98 69.39125 -62 68.5625 C-65.12476886 64.44251367 -64.7950782 59.38056053 -64.6171875 54.42578125 C-63.66976381 49.16698014 -61.25843148 46.1191832 -57 43 C-52.63010283 40.46993597 -49.54460265 39.6350771 -44.5078125 39.70703125 C-43.30898438 39.71669922 -42.11015625 39.72636719 -40.875 39.73632812 C-39.01875 39.7740332 -39.01875 39.7740332 -37.125 39.8125 C-35.86429688 39.82603516 -34.60359375 39.83957031 -33.3046875 39.85351562 C-30.20268546 39.88876565 -27.10156466 39.93804496 -24 40 C-24.02618408 39.22398438 -24.05236816 38.44796875 -24.0793457 37.6484375 C-24.18390727 34.099168 -24.24851554 30.55022349 -24.3125 27 C-24.35439453 25.77925781 -24.39628906 24.55851562 -24.43945312 23.30078125 C-24.55554614 14.70989836 -23.41745497 9.55409832 -17.41357422 3.36450195 C-12.52048668 -1.15873097 -6.28207397 -1.18309616 0 0 Z " fill="#1F64A9" transform="translate(90,25)"/>
<path d="M0 0 C0.33 0 0.66 0 1 0 C1 8.91 1 17.82 1 27 C5.95 27 10.9 27 16 27 C16 27.33 16 27.66 16 28 C11.05 28 6.1 28 1 28 C1.08737286 31.0429859 1.19430626 34.08318366 1.3125 37.125 C1.34633789 38.40890625 1.34633789 38.40890625 1.38085938 39.71875 C1.59991485 44.89642481 2.30748304 48.44556257 5 53 C5.33 53.99 5.66 54.98 6 56 C7.79932579 57.06716704 7.79932579 57.06716704 10 58 C10.64477295 58.5050708 11.2895459 59.0101416 11.95385742 59.53051758 C16.54461685 61.74513496 20.95218583 61.48029685 25.98828125 61.51171875 C27.04661667 61.52966995 28.10495209 61.54762115 29.19535828 61.56611633 C32.56769862 61.62019491 35.9398976 61.6541079 39.3125 61.6875 C41.6022332 61.72067516 43.89194775 61.755165 46.18164062 61.79101562 C51.78763365 61.87591998 57.39364503 61.94428033 63 62 C63 62.33 63 62.66 63 63 C53.76 63 44.52 63 35 63 C35.15742289 71.52591931 35.15742289 71.52591931 35.36035156 80.05078125 C35.42666309 87.19531341 34.98759692 91.9935479 31 98 C25.17706553 102.63458049 20.24659456 103.67121116 13 103 C7.13055592 100.96826936 4.11777246 97.37414029 0.87158203 92.20214844 C-0.28611005 89.2771113 -0.22495166 86.84487591 -0.1953125 83.703125 C-0.18886719 82.49785156 -0.18242188 81.29257813 -0.17578125 80.05078125 C-0.15902344 78.79652344 -0.14226562 77.54226562 -0.125 76.25 C-0.11597656 74.98027344 -0.10695312 73.71054688 -0.09765625 72.40234375 C-0.07409005 69.26803907 -0.04118832 66.13411459 0 63 C-0.77601562 63.02618408 -1.55203125 63.05236816 -2.3515625 63.0793457 C-5.900832 63.18390727 -9.44977651 63.24851554 -13 63.3125 C-14.22074219 63.35439453 -15.44148438 63.39628906 -16.69921875 63.43945312 C-24.24382334 63.54140724 -29.18095288 62.9560839 -35 58 C-35.99 57.195625 -36.98 56.39125 -38 55.5625 C-41.12476886 51.44251367 -40.7950782 46.38056053 -40.6171875 41.42578125 C-39.66976381 36.16698014 -37.25843148 33.1191832 -33 30 C-28.63010283 27.46993597 -25.54460265 26.6350771 -20.5078125 26.70703125 C-19.4264502 26.71452393 -18.34508789 26.7220166 -17.23095703 26.72973633 C-15.87599121 26.75704834 -14.52102539 26.78436035 -13.125 26.8125 C-8.79375 26.874375 -4.4625 26.93625 0 27 C0 18.09 0 9.18 0 0 Z " fill="#09B3EF" transform="translate(66,38)"/>
<path d="M0 0 C3.00155373 -0.13615919 5.996821 -0.2346398 9 -0.3125 C9.83917969 -0.35439453 10.67835937 -0.39628906 11.54296875 -0.43945312 C17.98323368 -0.56426446 22.0212269 0.90117895 27 5 C29.05859375 7.09765625 29.05859375 7.09765625 30.4375 9.0625 C30.91058594 9.71347656 31.38367188 10.36445312 31.87109375 11.03515625 C33.7513867 14.30777686 34.12593798 17.37618646 34.09765625 21.109375 C34.09443359 21.86347656 34.09121094 22.61757812 34.08789062 23.39453125 C34.07532227 24.56048828 34.07532227 24.56048828 34.0625 25.75 C34.05798828 26.54277344 34.05347656 27.33554688 34.04882812 28.15234375 C34.03708565 30.10159508 34.01915146 32.05080738 34 34 C30.79197767 34.11698258 27.58450975 34.18750607 24.375 34.25 C23.47136719 34.28351563 22.56773438 34.31703125 21.63671875 34.3515625 C14.28254295 34.45892273 10.83363238 32.50414024 5.3125 27.625 C0.07201515 21.67634152 -0.41068679 16.7247964 -0.1875 9.125 C-0.17396484 8.24585937 -0.16042969 7.36671875 -0.14648438 6.4609375 C-0.11136623 4.30702448 -0.05756694 2.15342996 0 0 Z " fill="#FADD0F" transform="translate(67,66)"/>
<path d="M0 0 C3.17625 -0.0825 6.3525 -0.165 9.625 -0.25 C10.6145166 -0.28641602 11.6040332 -0.32283203 12.62353516 -0.36035156 C18.27679095 -0.43120296 21.54920175 0.16814088 26 4 C29.67081546 8.15381749 30.66050663 11.41930818 30.37890625 16.82421875 C29.51397488 21.79088652 26.9573743 24.3202149 22.96875 27.15234375 C18.42937425 29.66040067 14.12677042 29.44868503 9.0625 29.25 C6.071875 29.1675 3.08125 29.085 0 29 C0 19.43 0 9.86 0 0 Z " fill="#0FB5F1" transform="translate(307,68)"/>
<path d="M0 0 C3.16756589 2.14154998 5.10760454 4.83630283 6.796875 8.21484375 C7.36038226 12.83375571 7.2391629 16.31325687 5.171875 20.52734375 C1.64081859 24.52301285 -0.79783386 26.85528992 -6.234375 27.66796875 C-11.6669372 27.94208886 -16.03460847 28.068895 -20.390625 24.52734375 C-24.59056186 20.05711392 -25.84074485 15.64581612 -25.71875 9.56640625 C-24.72782396 5.04718295 -21.62605195 2.14980627 -18.203125 -0.78515625 C-12.10496915 -4.44404976 -5.95870636 -3.24495443 0 0 Z " fill="#0EB5F1" transform="translate(365.203125,69.78515625)"/>
<path d="M0 0 C3.16756589 2.14154998 5.10760454 4.83630283 6.796875 8.21484375 C7.36038226 12.83375571 7.2391629 16.31325687 5.171875 20.52734375 C1.64081859 24.52301285 -0.79783386 26.85528992 -6.234375 27.66796875 C-11.6669372 27.94208886 -16.03460847 28.068895 -20.390625 24.52734375 C-24.59056186 20.05711392 -25.84074485 15.64581612 -25.71875 9.56640625 C-24.72782396 5.04718295 -21.62605195 2.14980627 -18.203125 -0.78515625 C-12.10496915 -4.44404976 -5.95870636 -3.24495443 0 0 Z " fill="#0EB5F1" transform="translate(285.203125,69.78515625)"/>
<path d="M0 0 C2.31 0 4.62 0 7 0 C7 3.63 7 7.26 7 11 C11.29 11 15.58 11 20 11 C20 7.37 20 3.74 20 0 C22.31 0 24.62 0 27 0 C27 9.57 27 19.14 27 29 C24.69 29 22.38 29 20 29 C20 25.04 20 21.08 20 17 C15.71 17 11.42 17 7 17 C7 20.96 7 24.92 7 29 C4.69 29 2.38 29 0 29 C0 19.43 0 9.86 0 0 Z " fill="#0CB4F1" transform="translate(150,68)"/>
<path d="M0 0 C7.26 0 14.52 0 22 0 C22 1.65 22 3.3 22 5 C16.72 5 11.44 5 6 5 C6 7.31 6 9.62 6 12 C10.62 12 15.24 12 20 12 C20 13.65 20 15.3 20 17 C15.38 17 10.76 17 6 17 C6 19.31 6 21.62 6 24 C11.28 24 16.56 24 22 24 C22 25.65 22 27.3 22 29 C14.74 29 7.48 29 0 29 C0 19.43 0 9.86 0 0 Z " fill="#06B2F1" transform="translate(184,68)"/>
<path d="M0 0 C1.67421691 0.94703179 3.28112596 2.01121874 4.87109375 3.09375 C4.54109375 4.41375 4.21109375 5.73375 3.87109375 7.09375 C2.05859375 7.71875 2.05859375 7.71875 -0.12890625 8.09375 C-1.11890625 7.43375 -2.10890625 6.77375 -3.12890625 6.09375 C-6.81613516 5.6128071 -8.68965419 5.86457501 -12.00390625 7.59375 C-14.43454053 10.45331975 -14.8653648 12.37485213 -14.61328125 16.12109375 C-13.75798426 19.60435972 -12.00349961 21.09403288 -9.12890625 23.09375 C-4.98666319 23.67366403 -3.64715136 23.43924674 -0.12890625 21.09375 C2.05859375 21.46875 2.05859375 21.46875 3.87109375 22.09375 C4.20109375 23.41375 4.53109375 24.73375 4.87109375 26.09375 C-0.70444135 29.8107734 -6.57437409 30.18178479 -13.12890625 29.09375 C-16.99124787 27.09253672 -19.29480439 24.43556603 -21.56640625 20.78125 C-22.70517409 15.34047032 -22.97197365 10.88105288 -20.56640625 5.78125 C-15.01688385 -0.33745419 -7.99156077 -3.40191211 0 0 Z " fill="#0FB5F1" transform="translate(397.12890625,67.90625)"/>
<path d="M0 0 C2.31 0 4.62 0 7 0 C7 7.59 7 15.18 7 23 C11.62 23 16.24 23 21 23 C21 24.98 21 26.96 21 29 C14.07 29 7.14 29 0 29 C0 19.43 0 9.86 0 0 Z " fill="#14B6F1" transform="translate(237,68)"/>
<path d="M0 0 C2.31 0 4.62 0 7 0 C7 7.59 7 15.18 7 23 C11.62 23 16.24 23 21 23 C21 24.98 21 26.96 21 29 C14.07 29 7.14 29 0 29 C0 19.43 0 9.86 0 0 Z " fill="#14B6F1" transform="translate(212,68)"/>
<path d="M0 0 C2.75329021 1.79562405 4.52627461 3.05254922 6 6 C5.984375 8.05859375 5.984375 8.05859375 5.75 10.4375 C5.68296875 11.21996094 5.6159375 12.00242187 5.546875 12.80859375 C4.89045082 15.43897922 4.15545465 16.38092577 2 18 C-0.98585409 18.72238405 -3.0178707 19.20927223 -6 19 C-8.85993478 17.23535939 -10.49782849 16.00434303 -12 13 C-12.68839635 6.00130378 -12.68839635 6.00130378 -9.9375 2 C-6.23727467 -0.51930235 -4.3968344 -0.7066341 0 0 Z " fill="#F6FCFE" transform="translate(359,73)"/>
<path d="M0 0 C2.75329021 1.79562405 4.52627461 3.05254922 6 6 C5.984375 8.05859375 5.984375 8.05859375 5.75 10.4375 C5.68296875 11.21996094 5.6159375 12.00242187 5.546875 12.80859375 C4.89045082 15.43897922 4.15545465 16.38092577 2 18 C-0.98585409 18.72238405 -3.0178707 19.20927223 -6 19 C-8.85993478 17.23535939 -10.49782849 16.00434303 -12 13 C-12.68839635 6.00130378 -12.68839635 6.00130378 -9.9375 2 C-6.23727467 -0.51930235 -4.3968344 -0.7066341 0 0 Z " fill="#F6FCFE" transform="translate(279,73)"/>
<path d="M0 0 C10.29411765 0 10.29411765 0 15 4 C16.76690443 7.53380886 16.04957861 11.28356758 15 15 C12.5 17.5625 12.5 17.5625 9 19 C6.03 19 3.06 19 0 19 C0 12.73 0 6.46 0 0 Z " fill="#EFFAFE" transform="translate(314,73)"/>
<path d="M0 0 C0.33 0 0.66 0 1 0 C1 8.91 1 17.82 1 27 C5.95 27 10.9 27 16 27 C16 27.33 16 27.66 16 28 C11.05 28 6.1 28 1 28 C1 32.95 1 37.9 1 43 C0.67 43 0.34 43 0 43 C0 38.05 0 33.1 0 28 C-8.91 28 -17.82 28 -27 28 C-27 27.67 -27 27.34 -27 27 C-18.09 27 -9.18 27 0 27 C0 18.09 0 9.18 0 0 Z " fill="#85BFB6" transform="translate(66,38)"/>
<path d="M0 0 C2.625 0.375 2.625 0.375 5 1 C5.625 3.375 5.625 3.375 6 6 C4 8 4 8 1.4375 8.1875 C-1 8 -1 8 -2 7 C-2.1875 4.5625 -2.1875 4.5625 -2 2 C-1.34 1.34 -0.68 0.68 0 0 Z " fill="#17B8F2" transform="translate(297,89)"/>
</svg>
