<?xml version="1.0" encoding="UTF-8"?>
<!DOCTYPE svg PUBLIC "-//W3C//DTD SVG 1.1//EN" "http://www.w3.org/Graphics/SVG/1.1/DTD/svg11.dtd">
<svg xmlns="http://www.w3.org/2000/svg" version="1.1" width="428px" height="169px" style="shape-rendering:geometricPrecision; text-rendering:geometricPrecision; image-rendering:optimizeQuality; fill-rule:evenodd; clip-rule:evenodd" xmlns:xlink="http://www.w3.org/1999/xlink">
<g><path style="opacity:1" fill="#2063a7" d="M 94.5,27.5 C 94.5,28.5 94.5,29.5 94.5,30.5C 92.6526,30.2342 91.986,30.5675 92.5,31.5C 94.4086,32.3482 96.4086,32.6816 98.5,32.5C 99.3055,35.2854 99.9722,38.1187 100.5,41C 99.7972,48.1496 99.2972,55.3162 99,62.5C 97.276,65.7303 95.276,66.0636 93,63.5C 92.1841,64.8228 91.0174,65.4894 89.5,65.5C 82.0773,63.7454 74.4106,63.0787 66.5,63.5C 66.7311,55.7911 66.3978,48.1244 65.5,40.5C 67.874,26.9745 75.874,21.4745 89.5,24C 91.5844,24.6972 93.2511,25.8639 94.5,27.5 Z"/></g>
<g><path style="opacity:1" fill="#407490" d="M 65.5,40.5 C 66.3978,48.1244 66.7311,55.7911 66.5,63.5C 74.4106,63.0787 82.0773,63.7454 89.5,65.5C 91.328,66.2828 92.6613,67.6161 93.5,69.5C 90.8284,68.4986 88.1618,67.4986 85.5,66.5C 84.4324,65.5655 83.099,65.2322 81.5,65.5C 76.1667,64.1667 70.8333,64.1667 65.5,65.5C 65.1667,65.5 64.8333,65.5 64.5,65.5C 64.5,65.1667 64.5,64.8333 64.5,64.5C 64.1743,56.3159 64.5076,48.3159 65.5,40.5 Z"/></g>
<g><path style="opacity:0.584" fill="#34a4c4" d="M 64.5,64.5 C 64.5,64.8333 64.5,65.1667 64.5,65.5C 55.4938,65.3336 46.4938,65.5002 37.5,66C 33.4481,67.6858 29.7814,69.8525 26.5,72.5C 28.7252,69.1114 31.7252,66.6114 35.5,65C 45.1909,63.2802 54.8575,63.1136 64.5,64.5 Z"/></g>
<g><path style="opacity:1" fill="#10b1ec" d="M 64.5,65.5 C 64.8333,65.5 65.1667,65.5 65.5,65.5C 65.3337,72.175 65.5004,78.8417 66,85.5C 66.7384,88.6485 68.2384,91.3152 70.5,93.5C 69.9347,99.1869 69.268,104.854 68.5,110.5C 70.2378,116.624 71.0711,122.957 71,129.5C 72.669,131.169 73.5023,133.169 73.5,135.5C 72.5,135.5 71.5,135.5 70.5,135.5C 67.9374,133.388 66.104,130.721 65,127.5C 64.5002,118.84 64.3336,110.173 64.5,101.5C 56.4931,101.666 48.4931,101.5 40.5,101C 24.7637,97.0268 20.097,87.5268 26.5,72.5C 29.7814,69.8525 33.4481,67.6858 37.5,66C 46.4938,65.5002 55.4938,65.3336 64.5,65.5 Z"/></g>
<g><path style="opacity:1" fill="#dade58" d="M 81.5,65.5 C 83.099,65.2322 84.4324,65.5655 85.5,66.5C 79.5,66.5 73.5,66.5 67.5,66.5C 67.5,71.1667 67.5,75.8333 67.5,80.5C 66.5128,75.6946 66.1795,70.6946 66.5,65.5C 71.5,65.5 76.5,65.5 81.5,65.5 Z"/></g>
<g><path style="opacity:1" fill="#80bf92" d="M 81.5,65.5 C 76.5,65.5 71.5,65.5 66.5,65.5C 66.1795,70.6946 66.5128,75.6946 67.5,80.5C 67.3697,85.019 68.7031,89.019 71.5,92.5C 71.5,92.8333 71.5,93.1667 71.5,93.5C 71.1667,93.5 70.8333,93.5 70.5,93.5C 68.2384,91.3152 66.7384,88.6485 66,85.5C 65.5004,78.8417 65.3337,72.175 65.5,65.5C 70.8333,64.1667 76.1667,64.1667 81.5,65.5 Z"/></g>
<g><path style="opacity:1" fill="#25b2e9" d="M 306.5,66.5 C 312.842,66.3338 319.175,66.5005 325.5,67C 336.855,71.542 340.022,79.3753 335,90.5C 332.222,93.8071 328.722,95.9738 324.5,97C 318.472,97.8303 312.472,97.6636 306.5,96.5C 305.169,86.4702 305.169,76.4702 306.5,66.5 Z M 315.5,73.5 C 328.134,72.9396 331.467,78.1062 325.5,89C 322.041,90.7055 318.541,90.8722 315,89.5C 314.219,84.0833 314.385,78.7499 315.5,73.5 Z"/></g>
<g><path style="opacity:1" fill="#25b3e9" d="M 350.5,65.5 C 365.238,65.0731 372.405,72.0731 372,86.5C 365.588,97.7124 356.422,100.546 344.5,95C 334.883,82.6408 336.883,72.8075 350.5,65.5 Z M 353.5,72.5 C 361.985,73.4933 365.152,78.16 363,86.5C 354.346,93.3303 348.846,91.3303 346.5,80.5C 347.485,76.5228 349.818,73.8561 353.5,72.5 Z"/></g>
<g><path style="opacity:1" fill="#1f63a8" d="M 140.5,75.5 C 144.724,87.6478 140.724,95.9811 128.5,100.5C 123.025,99.5111 117.358,99.1778 111.5,99.5C 111.53,98.5028 111.03,97.8361 110,97.5C 108.56,98.1476 107.06,98.4809 105.5,98.5C 105.5,97.5 105.5,96.5 105.5,95.5C 106.978,95.762 108.311,95.4287 109.5,94.5C 108.332,92.7826 106.665,92.1159 104.5,92.5C 104.688,94.1033 104.188,95.4366 103,96.5C 102.502,93.1832 102.335,89.8499 102.5,86.5C 106.358,86.1399 108.358,83.9732 108.5,80C 109.793,79.51 111.127,79.3433 112.5,79.5C 112.5,78.1667 112.5,76.8333 112.5,75.5C 118.176,75.6661 123.843,75.4994 129.5,75C 131.679,73.7433 133.679,72.2433 135.5,70.5C 137.217,71.6685 137.884,73.3352 137.5,75.5C 138.5,75.5 139.5,75.5 140.5,75.5 Z"/></g>
<g><path style="opacity:1" fill="#f7dc15" d="M 85.5,66.5 C 88.1618,67.4986 90.8284,68.4986 93.5,69.5C 95.9249,72.5886 97.9249,75.9219 99.5,79.5C 99.5,85.8333 99.5,92.1667 99.5,98.5C 92.017,98.9088 84.6836,98.2421 77.5,96.5C 75.7541,94.7484 73.7541,93.4151 71.5,92.5C 68.7031,89.019 67.3697,85.019 67.5,80.5C 67.5,75.8333 67.5,71.1667 67.5,66.5C 73.5,66.5 79.5,66.5 85.5,66.5 Z"/></g>
<g><path style="opacity:1" fill="#2464a0" d="M 94.5,27.5 C 97.5594,29.3974 99.7261,32.0641 101,35.5C 101.806,45.244 101.639,54.9107 100.5,64.5C 99.3415,66.7396 98.0082,68.9063 96.5,71C 97.3079,72.7058 98.6412,73.5391 100.5,73.5C 100.5,75.1667 100.5,76.8333 100.5,78.5C 103.388,78.2196 104.888,79.5529 105,82.5C 105.167,81.8333 105.333,81.1667 105.5,80.5C 103.974,76.2522 102.64,71.9189 101.5,67.5C 105.872,68.5389 108.539,71.2055 109.5,75.5C 108.325,75.281 107.325,75.6143 106.5,76.5C 107,76.8333 107.5,77.1667 108,77.5C 109.596,76.5035 111.096,75.3368 112.5,74C 118.196,73.8299 123.862,73.3299 129.5,72.5C 133.378,70.5992 133.378,68.7659 129.5,67C 119.78,67.1446 110.446,66.3112 101.5,64.5C 111.233,64.1091 120.9,64.6091 130.5,66C 135.648,67.3164 138.982,70.483 140.5,75.5C 139.5,75.5 138.5,75.5 137.5,75.5C 137.884,73.3352 137.217,71.6685 135.5,70.5C 133.679,72.2433 131.679,73.7433 129.5,75C 123.843,75.4994 118.176,75.6661 112.5,75.5C 112.5,76.8333 112.5,78.1667 112.5,79.5C 111.127,79.3433 109.793,79.51 108.5,80C 108.358,83.9732 106.358,86.1399 102.5,86.5C 102.335,89.8499 102.502,93.1832 103,96.5C 104.188,95.4366 104.688,94.1033 104.5,92.5C 106.665,92.1159 108.332,92.7826 109.5,94.5C 108.311,95.4287 106.978,95.762 105.5,95.5C 105.5,96.5 105.5,97.5 105.5,98.5C 107.06,98.4809 108.56,98.1476 110,97.5C 111.03,97.8361 111.53,98.5028 111.5,99.5C 108.167,99.5 104.833,99.5 101.5,99.5C 101.666,94.1563 101.499,88.8229 101,83.5C 100.79,81.9419 100.29,80.6085 99.5,79.5C 97.9249,75.9219 95.9249,72.5886 93.5,69.5C 92.6613,67.6161 91.328,66.2828 89.5,65.5C 91.0174,65.4894 92.1841,64.8228 93,63.5C 95.276,66.0636 97.276,65.7303 99,62.5C 99.2972,55.3162 99.7972,48.1496 100.5,41C 99.9722,38.1187 99.3055,35.2854 98.5,32.5C 96.4086,32.6816 94.4086,32.3482 92.5,31.5C 91.986,30.5675 92.6526,30.2342 94.5,30.5C 94.5,29.5 94.5,28.5 94.5,27.5 Z"/></g>
<g><path style="opacity:1" fill="#1f63aa" d="M 100.5,64.5 C 100.833,64.5 101.167,64.5 101.5,64.5C 110.446,66.3112 119.78,67.1446 129.5,67C 133.378,68.7659 133.378,70.5992 129.5,72.5C 123.862,73.3299 118.196,73.8299 112.5,74C 111.096,75.3368 109.596,76.5035 108,77.5C 107.5,77.1667 107,76.8333 106.5,76.5C 107.325,75.6143 108.325,75.281 109.5,75.5C 108.539,71.2055 105.872,68.5389 101.5,67.5C 102.64,71.9189 103.974,76.2522 105.5,80.5C 105.333,81.1667 105.167,81.8333 105,82.5C 104.888,79.5529 103.388,78.2196 100.5,78.5C 100.5,76.8333 100.5,75.1667 100.5,73.5C 98.6412,73.5391 97.3079,72.7058 96.5,71C 98.0082,68.9063 99.3415,66.7396 100.5,64.5 Z"/></g>
<g><path style="opacity:1" fill="#1cd8f3" d="M 190.5,78.5 C 194.846,78.3343 199.179,78.501 203.5,79C 204.576,80.7261 204.743,82.5594 204,84.5C 202.384,85.8009 200.884,85.8009 199.5,84.5C 200.209,83.596 201.209,83.2627 202.5,83.5C 202.5,82.5 202.5,81.5 202.5,80.5C 198.336,80.0443 194.336,79.3777 190.5,78.5 Z"/></g>
<g><path style="opacity:1" fill="#25b1f1" d="M 149.5,66.5 C 152.119,66.2317 154.619,66.565 157,67.5C 157.498,70.8168 157.665,74.1501 157.5,77.5C 160.817,78.2209 164.151,78.3876 167.5,78C 168.293,74.5894 168.793,71.0894 169,67.5C 171.401,66.3977 173.901,66.231 176.5,67C 177.651,76.7559 177.818,86.5893 177,96.5C 176.275,97.0585 175.442,97.3918 174.5,97.5C 172.759,96.7506 171.092,96.4173 169.5,96.5C 168.865,92.6331 168.199,88.7998 167.5,85C 164.174,84.8281 160.841,84.9947 157.5,85.5C 157.665,89.1817 157.499,92.8484 157,96.5C 154.333,97.8333 151.667,97.8333 149,96.5C 148.193,86.4229 148.36,76.4229 149.5,66.5 Z"/></g>
<g><path style="opacity:1" fill="#26b6f0" d="M 190.5,78.5 C 194.336,79.3777 198.336,80.0443 202.5,80.5C 202.5,81.5 202.5,82.5 202.5,83.5C 201.209,83.2627 200.209,83.596 199.5,84.5C 196.57,85.299 193.57,85.6323 190.5,85.5C 190.5,87.1667 190.5,88.8333 190.5,90.5C 195.762,90.1953 200.928,90.5286 206,91.5C 206.82,93.728 206.487,95.728 205,97.5C 197.686,97.6195 190.353,97.2861 183,96.5C 182.333,86.8333 182.333,77.1667 183,67.5C 190.42,66.3534 197.92,66.1868 205.5,67C 206.406,68.6995 206.739,70.5328 206.5,72.5C 201.33,73.4602 195.996,73.7935 190.5,73.5C 190.5,75.1667 190.5,76.8333 190.5,78.5 Z"/></g>
<g><path style="opacity:1" fill="#24b3ea" d="M 271.5,65.5 C 285.724,65.5542 292.557,72.5542 292,86.5C 285.588,97.7124 276.422,100.546 264.5,95C 254.609,82.05 256.942,72.2167 271.5,65.5 Z M 273.5,72.5 C 282.003,73.5079 285.17,78.1745 283,86.5C 274.69,93.2146 269.19,91.3813 266.5,81C 267.267,76.7441 269.601,73.9108 273.5,72.5 Z"/></g>
<g><path style="opacity:1" fill="#22b4ea" d="M 385.5,65.5 C 392.168,64.4453 397.834,66.2786 402.5,71C 401.833,72.3333 401.167,73.6667 400.5,75C 397.004,75.6953 393.67,75.1953 390.5,73.5C 383.519,75.461 381.353,79.7944 384,86.5C 385.214,88.0488 386.714,89.2155 388.5,90C 392.397,89.0468 396.397,88.7134 400.5,89C 402.22,92.0859 401.553,94.4192 398.5,96C 384.511,100.849 376.178,96.182 373.5,82C 373.866,73.8077 377.866,68.3077 385.5,65.5 Z"/></g>
<g><path style="opacity:1" fill="#30b1f1" d="M 211.5,66.5 C 214.119,66.2317 216.619,66.565 219,67.5C 219.5,74.8258 219.666,82.1591 219.5,89.5C 224.181,89.6686 228.848,90.0019 233.5,90.5C 233.852,93.0728 233.352,95.4062 232,97.5C 224.808,97.8169 217.808,97.4835 211,96.5C 210.193,86.4229 210.36,76.4229 211.5,66.5 Z"/></g>
<g><path style="opacity:1" fill="#9acb72" d="M 71.5,93.5 C 71.5,93.1667 71.5,92.8333 71.5,92.5C 73.7541,93.4151 75.7541,94.7484 77.5,96.5C 77.5,96.8333 77.5,97.1667 77.5,97.5C 77.1667,97.5 76.8333,97.5 76.5,97.5C 74.8333,96.1667 73.1667,94.8333 71.5,93.5 Z"/></g>
<g><path style="opacity:1" fill="#2ab5f1" d="M 236.5,66.5 C 239.119,66.2317 241.619,66.565 244,67.5C 244.5,74.8258 244.666,82.1591 244.5,89.5C 249.249,89.668 253.749,90.0014 258,90.5C 258.851,93.053 258.518,95.3863 257,97.5C 250.346,97.7504 243.513,97.4171 236.5,96.5C 235.169,86.4702 235.169,76.4702 236.5,66.5 Z"/></g>
<g><path style="opacity:1" fill="#34b4e3" d="M 296.5,87.5 C 300.608,87.4412 302.941,89.4412 303.5,93.5C 300.977,97.5912 297.81,98.2579 294,95.5C 293.023,92.1827 293.856,89.516 296.5,87.5 Z"/></g>
<g><path style="opacity:1" fill="#b5c757" d="M 99.5,79.5 C 100.29,80.6085 100.79,81.9419 101,83.5C 101.499,88.8229 101.666,94.1563 101.5,99.5C 100.833,99.5 100.167,99.5 99.5,99.5C 91.9296,100.054 84.5963,99.3871 77.5,97.5C 77.5,97.1667 77.5,96.8333 77.5,96.5C 84.6836,98.2421 92.017,98.9088 99.5,98.5C 99.5,92.1667 99.5,85.8333 99.5,79.5 Z"/></g>
<g><path style="opacity:1" fill="#4cb5a2" d="M 76.5,98.5 C 76.5,98.1667 76.5,97.8333 76.5,97.5C 76.8333,97.5 77.1667,97.5 77.5,97.5C 84.5963,99.3871 91.9296,100.054 99.5,99.5C 93.013,100.654 86.3464,100.821 79.5,100C 78.7562,98.9614 77.7562,98.4614 76.5,98.5 Z"/></g>
<g><path style="opacity:1" fill="#10b0ec" d="M 76.5,98.5 C 77.7562,98.4614 78.7562,98.9614 79.5,100C 86.3464,100.821 93.013,100.654 99.5,99.5C 100.167,99.5 100.833,99.5 101.5,99.5C 104.833,99.5 108.167,99.5 111.5,99.5C 117.358,99.1778 123.025,99.5111 128.5,100.5C 119.682,101.493 110.682,101.827 101.5,101.5C 101.666,110.173 101.5,118.84 101,127.5C 100.058,132.758 97.2242,136.424 92.5,138.5C 87.4834,139.503 82.4834,139.503 77.5,138.5C 79.1428,136.846 80.9761,135.513 83,134.5C 85.8693,135.567 88.7027,135.567 91.5,134.5C 88.7036,132.555 85.7036,131.055 82.5,130C 84.1667,129.667 85.8333,129.333 87.5,129C 84.8323,128.433 82.1656,127.933 79.5,127.5C 79.5,122.167 79.5,116.833 79.5,111.5C 82.1873,111.664 84.854,111.497 87.5,111C 85.1869,109.735 83.0202,108.235 81,106.5C 79.0791,108.881 76.5791,110.381 73.5,111C 72.6929,116.083 72.1929,121.25 72,126.5C 71.3333,120.167 71.3333,113.833 72,107.5C 74.2016,106.598 76.3683,105.598 78.5,104.5C 76.9547,103.548 75.288,103.215 73.5,103.5C 73.6427,101.738 73.3094,100.071 72.5,98.5C 73.6998,97.7084 75.0331,97.7084 76.5,98.5 Z"/></g>
<g><path style="opacity:1" fill="#0cb3ec" d="M 70.5,93.5 C 70.8333,93.5 71.1667,93.5 71.5,93.5C 73.1667,94.8333 74.8333,96.1667 76.5,97.5C 76.5,97.8333 76.5,98.1667 76.5,98.5C 75.0331,97.7084 73.6998,97.7084 72.5,98.5C 73.3094,100.071 73.6427,101.738 73.5,103.5C 75.288,103.215 76.9547,103.548 78.5,104.5C 76.3683,105.598 74.2016,106.598 72,107.5C 71.3333,113.833 71.3333,120.167 72,126.5C 72.1929,121.25 72.6929,116.083 73.5,111C 76.5791,110.381 79.0791,108.881 81,106.5C 83.0202,108.235 85.1869,109.735 87.5,111C 84.854,111.497 82.1873,111.664 79.5,111.5C 79.5,116.833 79.5,122.167 79.5,127.5C 82.1656,127.933 84.8323,128.433 87.5,129C 85.8333,129.333 84.1667,129.667 82.5,130C 85.7036,131.055 88.7036,132.555 91.5,134.5C 88.7027,135.567 85.8693,135.567 83,134.5C 80.9761,135.513 79.1428,136.846 77.5,138.5C 82.4834,139.503 87.4834,139.503 92.5,138.5C 86.3708,142.215 80.0374,142.382 73.5,139C 72.2899,137.961 71.2899,136.794 70.5,135.5C 71.5,135.5 72.5,135.5 73.5,135.5C 73.5023,133.169 72.669,131.169 71,129.5C 71.0711,122.957 70.2378,116.624 68.5,110.5C 69.268,104.854 69.9347,99.1869 70.5,93.5 Z"/></g>
</svg>
