<?xml version="1.0" encoding="UTF-8"?>
<svg version="1.1" xmlns="http://www.w3.org/2000/svg" width="500" height="500">
<path d="M0 0 C165 0 330 0 500 0 C500 165 500 330 500 500 C335 500 170 500 0 500 C0 335 0 170 0 0 Z " fill="#FEFEFE" transform="translate(0,0)"/>
<path d="M0 0 C5.67983838 2.96180413 8.90880117 7.29769584 10.8828125 13.26171875 C11.10986328 16.30786133 11.10986328 16.30786133 11.078125 19.65625 C11.07167969 20.85830078 11.06523437 22.06035156 11.05859375 23.29882812 C11.03345703 25.16764648 11.03345703 25.16764648 11.0078125 27.07421875 C10.99878906 28.33943359 10.98976563 29.60464844 10.98046875 30.90820312 C10.95693644 34.02623439 10.92405795 37.14387972 10.8828125 40.26171875 C11.69959473 40.2460083 12.51637695 40.23029785 13.35791016 40.21411133 C17.07447327 40.15157935 20.79092546 40.11266931 24.5078125 40.07421875 C25.79300781 40.04908203 27.07820313 40.02394531 28.40234375 39.99804688 C30.26826172 39.98354492 30.26826172 39.98354492 32.171875 39.96875 C33.88431396 39.94518433 33.88431396 39.94518433 35.63134766 39.92114258 C39.96125892 40.37468111 43.33056351 41.81270722 46.52734375 44.796875 C51.13949823 50.82815394 51.45785077 54.7436258 50.8828125 62.26171875 C48.92580495 68.13274141 45.23546427 71.15743352 40.08496094 74.39013672 C37.1599238 75.5478288 34.72768841 75.48667041 31.5859375 75.45703125 C29.77802734 75.44736328 29.77802734 75.44736328 27.93359375 75.4375 C26.05220703 75.41236328 26.05220703 75.41236328 24.1328125 75.38671875 C22.22822266 75.37318359 22.22822266 75.37318359 20.28515625 75.359375 C17.15085157 75.3358088 14.01692709 75.30290707 10.8828125 75.26171875 C10.9142334 76.2815686 10.9142334 76.2815686 10.94628906 77.32202148 C11.03021145 80.44759922 11.0817116 83.57293891 11.1328125 86.69921875 C11.16632813 87.76849609 11.19984375 88.83777344 11.234375 89.93945312 C11.33158456 97.88633478 10.2934537 104.21295758 5.06640625 110.41796875 C4.49019531 110.86140625 3.91398437 111.30484375 3.3203125 111.76171875 C2.74152344 112.22578125 2.16273438 112.68984375 1.56640625 113.16796875 C-2.63021996 115.89431525 -7.30611762 116.04209701 -12.1171875 115.26171875 C-17.87818172 112.77171966 -21.69244233 109.48395888 -24.35620117 103.79882812 C-25.96753658 98.42667621 -25.51963917 92.81447756 -25.3671875 87.26171875 C-25.34914062 86.01003906 -25.33109375 84.75835937 -25.3125 83.46875 C-25.26563262 80.39893633 -25.2000306 77.33073701 -25.1171875 74.26171875 C-25.92349609 74.28790283 -26.72980469 74.31408691 -27.56054688 74.34106445 C-31.24589222 74.44558136 -34.93092488 74.51022114 -38.6171875 74.57421875 C-39.885625 74.61611328 -41.1540625 74.65800781 -42.4609375 74.70117188 C-49.99629761 74.79928854 -55.37836031 74.44185568 -61.1171875 69.26171875 C-65.51785857 64.43517628 -65.46266565 59.48687281 -65.39453125 53.2109375 C-65.01792441 49.20617465 -63.87695229 47.16673432 -61.1171875 44.26171875 C-55.90936688 40.32928277 -52.37364063 39.13375418 -45.91796875 39.1640625 C-44.70947266 39.16728516 -43.50097656 39.17050781 -42.25585938 39.17382812 C-40.99322266 39.18220703 -39.73058594 39.19058594 -38.4296875 39.19921875 C-36.51833008 39.20598633 -36.51833008 39.20598633 -34.56835938 39.21289062 C-31.41792186 39.22469002 -28.26757801 39.24115278 -25.1171875 39.26171875 C-25.13813477 38.51599609 -25.15908203 37.77027344 -25.18066406 37.00195312 C-25.26435384 33.5886815 -25.31601544 30.17562651 -25.3671875 26.76171875 C-25.41746094 25.00214844 -25.41746094 25.00214844 -25.46875 23.20703125 C-25.56088835 15.006718 -24.6693096 9.50211395 -19.36328125 3.16796875 C-13.41587327 -1.45636575 -7.21944525 -2.51748183 0 0 Z " fill="#2064A9" transform="translate(257.1171875,147.73828125)"/>
<path d="M0 0 C0.33 0 0.66 0 1 0 C1.00546844 0.8189978 1.00546844 0.8189978 1.01104736 1.65454102 C1.05303651 7.36565886 1.12249548 13.0759853 1.20751953 18.78662109 C1.23564943 20.91447005 1.25690346 23.04242194 1.27099609 25.17041016 C1.29253608 28.2391398 1.33924371 31.30664211 1.390625 34.375 C1.39185364 35.31802979 1.39308228 36.26105957 1.39434814 37.23266602 C1.54010454 43.88773329 2.7368804 49.56192048 7.44683838 54.52441406 C11.55945856 58.10063363 15.1033899 60.19338067 20.546875 60.4140625 C21.39121094 60.45273438 22.23554688 60.49140625 23.10546875 60.53125 C24.41451172 60.57765625 24.41451172 60.57765625 25.75 60.625 C26.63816406 60.66367188 27.52632813 60.70234375 28.44140625 60.7421875 C30.62727167 60.83620322 32.81360692 60.91918002 35 61 C35 55.72 35 50.44 35 45 C35.33 45 35.66 45 36 45 C36 50.28 36 55.56 36 61 C44.91 61 53.82 61 63 61 C63 61.33 63 61.66 63 62 C54.09 62 45.18 62 36 62 C36.15711647 69.49365254 36.15711647 69.49365254 36.36035156 76.98608398 C36.44251513 84.81613958 35.32540329 91.05242448 30.18359375 97.15625 C29.60738281 97.5996875 29.03117187 98.043125 28.4375 98.5 C27.85871094 98.9640625 27.27992188 99.428125 26.68359375 99.90625 C22.48696754 102.6325965 17.81106988 102.78037826 13 102 C7.23900578 99.51000091 3.42474517 96.22224013 0.76098633 90.53710938 C-0.85034908 85.16495746 -0.40245167 79.55275881 -0.25 74 C-0.23195312 72.74832031 -0.21390625 71.49664062 -0.1953125 70.20703125 C-0.14844512 67.13721758 -0.0828431 64.06901826 0 61 C-0.80630859 61.02618408 -1.61261719 61.05236816 -2.44335938 61.0793457 C-6.12870472 61.18386261 -9.81373738 61.24850239 -13.5 61.3125 C-15.40265625 61.3753418 -15.40265625 61.3753418 -17.34375 61.43945312 C-24.87911011 61.53756979 -30.26117281 61.18013693 -36 56 C-40.40067107 51.17345753 -40.34547815 46.22515406 -40.27734375 39.94921875 C-39.90073691 35.9444559 -38.75976479 33.90501557 -36 31 C-30.79217938 27.06756402 -27.25645313 25.87203543 -20.80078125 25.90234375 C-19.59228516 25.90556641 -18.38378906 25.90878906 -17.13867188 25.91210938 C-15.87603516 25.92048828 -14.61339844 25.92886719 -13.3125 25.9375 C-11.40114258 25.94426758 -11.40114258 25.94426758 -9.45117188 25.95117188 C-6.3007613 25.96297117 -3.15037481 25.98090682 0 26 C0 17.42 0 8.84 0 0 Z " fill="#08B2EF" transform="translate(232,161)"/>
<path d="M0 0 C19.25425185 -0.68493386 19.25425185 -0.68493386 25.9921875 4.546875 C30.0852509 8.38518341 33.63138596 12.45725196 34.23535156 18.26196289 C34.2944623 20.8064796 34.26221137 23.33098222 34.1875 25.875 C34.16719727 27.19371094 34.16719727 27.19371094 34.14648438 28.5390625 C34.11136623 30.69297552 34.05756694 32.84657004 34 35 C30.99844627 35.13615919 28.003179 35.2346398 25 35.3125 C24.16082031 35.35439453 23.32164062 35.39628906 22.45703125 35.43945312 C16.03802822 35.56385241 11.97182748 34.07331315 7 30 C3.14755717 26.26767651 0.23693073 22.29857774 -0.15673828 16.81787109 C-0.19662941 14.2714035 -0.17436838 11.73376922 -0.125 9.1875 C-0.11597656 8.30384766 -0.10695312 7.42019531 -0.09765625 6.50976562 C-0.07419637 4.33972641 -0.03832865 2.16982753 0 0 Z " fill="#F9DD0F" transform="translate(233,187)"/>
<path d="M0 0 C4.05710804 2.17881728 7.28357406 4.62964812 9.375 8.8125 C9.89538648 14.46669928 10.13282276 19.2494295 6.375 23.8125 C3.32211 27.24700125 1.33857968 28.63965965 -3.33203125 29.05078125 C-8.08454797 29.16436341 -11.71267696 29.20349559 -16.125 27.3125 C-19.88573922 23.55176078 -22.36286076 19.91098585 -22.8203125 14.50390625 C-22.49071149 8.75527682 -20.80629043 5.71503774 -16.625 1.8125 C-10.96695926 -1.87752657 -6.36719302 -2.08580461 0 0 Z " fill="#0EB5F1" transform="translate(256.625,297.1875)"/>
<path d="M0 0 C3.67801569 2.1798148 6.54443717 4.28282499 8.75390625 8.01171875 C9.60504112 13.51725783 9.44656086 18.49320673 7.12890625 23.57421875 C2.68054419 28.13964297 -0.97333004 29.20855579 -7.24609375 29.44921875 C-12.36112185 29.30343728 -15.46181777 28.69896202 -19.24609375 25.01171875 C-22.78845385 20.05241461 -23.09094643 14.90648631 -22.24609375 9.01171875 C-20.19928625 4.59061455 -17.62091802 1.93430604 -13.23046875 -0.2890625 C-8.67378931 -1.89466411 -4.44532789 -1.95594427 0 0 Z " fill="#0EB5F1" transform="translate(337.24609375,296.98828125)"/>
<path d="M0 0 C4.2384375 -0.0928125 4.2384375 -0.0928125 8.5625 -0.1875 C9.43849854 -0.21481201 10.31449707 -0.24212402 11.21704102 -0.27026367 C17.67560518 -0.33809501 22.27096253 0.83076509 27.4375 4.9375 C29.9360988 9.83475365 29.707125 14.62001802 29 20 C26.94428247 24.68703597 24.76662861 26.48572045 20.06616211 28.40454102 C16.26584163 29.49977694 12.48325686 29.30974194 8.5625 29.1875 C5.736875 29.125625 2.91125 29.06375 0 29 C0 19.43 0 9.86 0 0 Z " fill="#0CB4F1" transform="translate(282,297)"/>
<path d="M0 0 C2.31 0 4.62 0 7 0 C7 3.63 7 7.26 7 11 C11.29 11 15.58 11 20 11 C20 7.37 20 3.74 20 0 C22.31 0 24.62 0 27 0 C27 9.57 27 19.14 27 29 C24.69 29 22.38 29 20 29 C20 25.04 20 21.08 20 17 C15.71 17 11.42 17 7 17 C7 20.96 7 24.92 7 29 C4.69 29 2.38 29 0 29 C0 19.43 0 9.86 0 0 Z " fill="#0CB4F1" transform="translate(125,297)"/>
<path d="M0 0 C7.59 0 15.18 0 23 0 C23 1.65 23 3.3 23 5 C17.72 5 12.44 5 7 5 C7 7.31 7 9.62 7 12 C11.62 12 16.24 12 21 12 C21 13.65 21 15.3 21 17 C16.38 17 11.76 17 7 17 C7 19.31 7 21.62 7 24 C12.28 24 17.56 24 23 24 C23 25.65 23 27.3 23 29 C15.41 29 7.82 29 0 29 C0 19.43 0 9.86 0 0 Z " fill="#0EB5F1" transform="translate(158,297)"/>
<path d="M0 0 C1.67421691 0.94703179 3.28112596 2.01121874 4.87109375 3.09375 C4.21109375 4.41375 3.55109375 5.73375 2.87109375 7.09375 C-0.20877407 7.09375 -2.64564202 6.85458292 -5.62890625 6.34375 C-8.80348501 5.9985734 -9.80573607 5.92034161 -12.69140625 7.46875 C-14.81061365 11.33860699 -15.02826627 14.78628885 -14.12890625 19.09375 C-12.23635167 21.907929 -12.23635167 21.907929 -9.12890625 23.09375 C-5.82648489 22.91993835 -3.03124998 22.36946614 0.12109375 21.40625 C1.87109375 21.09375 1.87109375 21.09375 4.87109375 23.09375 C3.93653028 25.43015867 3.30005049 26.81561367 1.16015625 28.203125 C-3.41420745 29.98291156 -8.31389046 29.60941434 -13.12890625 29.09375 C-16.97372513 27.33997296 -18.57275104 25.87236729 -21.00390625 22.46875 C-22.96105623 16.59730007 -23.18909167 11.38375051 -20.56640625 5.71875 C-14.95673117 -0.32243855 -7.99035766 -3.40139996 0 0 Z " fill="#10B5F1" transform="translate(372.12890625,296.90625)"/>
<path d="M0 0 C2.31 0 4.62 0 7 0 C7 7.59 7 15.18 7 23 C11.95 23 16.9 23 22 23 C22 24.98 22 26.96 22 29 C14.74 29 7.48 29 0 29 C0 19.43 0 9.86 0 0 Z " fill="#11B6F1" transform="translate(211,297)"/>
<path d="M0 0 C2.31 0 4.62 0 7 0 C7 7.59 7 15.18 7 23 C11.95 23 16.9 23 22 23 C22 24.98 22 26.96 22 29 C14.74 29 7.48 29 0 29 C0 19.43 0 9.86 0 0 Z " fill="#11B6F1" transform="translate(186,297)"/>
<path d="M0 0 C3.34265205 1.20706879 3.94704566 1.92056849 6 5 C6.72466918 8.72089754 7.03342376 12.44986436 4.8671875 15.69921875 C2.40225257 17.95121427 0.18331824 18.96258811 -3.0625 19.625 C-6.97813037 18.79188716 -8.47422371 17.03093154 -11 14 C-12.42662219 11.14675563 -12.31033868 9.16545451 -12 6 C-8.46811118 0.70216676 -6.29846462 -0.37790788 0 0 Z " fill="#F5FCFE" transform="translate(253,302)"/>
<path d="M0 0 C3.30921624 1.11747787 4.52518392 2.63809761 6.09375 5.70703125 C6.61397372 9.27427962 6.33503949 11.17619437 4.84375 14.45703125 C2.93988263 16.90486073 2.07067549 17.8801075 -0.90625 18.70703125 C-4.65873912 18.57301378 -7.13369076 18.18245232 -10.34375 16.20703125 C-12.70556039 12.42813463 -12.7672986 9.03533804 -11.90625 4.70703125 C-8.70672506 -0.45349285 -5.64664666 -1.00698532 0 0 Z " fill="#F5FCFE" transform="translate(333.90625,302.29296875)"/>
<path d="M0 0 C10.33333333 0 10.33333333 0 14 3 C16.32536063 6.48804095 16.33457898 7.90140754 16 12 C14.79293121 15.34265205 14.07943151 15.94704566 11 18 C7.31619572 18.26655603 3.69863419 18.08702669 0 18 C0 12.06 0 6.12 0 0 Z " fill="#F6FCFE" transform="translate(289,302)"/>
<path d="M0 0 C0.33 0 0.66 0 1 0 C1 5.28 1 10.56 1 16 C9.91 16 18.82 16 28 16 C28 16.33 28 16.66 28 17 C19.09 17 10.18 17 1 17 C1 24.92 1 32.84 1 41 C0.67 41 0.34 41 0 41 C0 33.08 0 25.16 0 17 C-4.62 17 -9.24 17 -14 17 C-14 16.67 -14 16.34 -14 16 C-9.38 16 -4.76 16 0 16 C0 10.72 0 5.44 0 0 Z " fill="#88C1BF" transform="translate(267,206)"/>
<path d="M0 0 C1 1 1 1 1.125 3.5 C1 6 1 6 0 7 C-2.4375 7.1875 -2.4375 7.1875 -5 7 C-5.66 6.34 -6.32 5.68 -7 5 C-6.75 2.4375 -6.75 2.4375 -6 0 C-3.49749232 -1.25125384 -2.59701335 -0.83774624 0 0 Z " fill="#15B7F1" transform="translate(276,319)"/>
</svg>
